<?xml version="1.0" encoding="utf-8"?>
<!-- Generator: Adobe Illustrator 20.1.0, SVG Export Plug-In . SVG Version: 6.00 Build 0)  -->
<svg version="1.1" id="レイヤー_1" xmlns="http://www.w3.org/2000/svg" xmlns:xlink="http://www.w3.org/1999/xlink" x="0px"
	 y="0px" viewBox="0 0 310.3 48" style="enable-background:new 0 0 310.3 48;" xml:space="preserve">
<style type="text/css">
	.st0{fill:#F5C53A;}
	.st1{fill:#FFFFFF;}
</style>
<path class="st0" d="M94,30.4h-5.7v8.1h1.8v-3.6h3.5v-1.3h-3.5v-1.8H94V30.4z"/>
<path class="st0" d="M101,32.3h-1.6v4.5c-0.5,0.3-0.9,0.5-1.3,0.5s-0.7-0.1-0.9-0.3c-0.2-0.2-0.3-0.8-0.3-1.6v-3.1h-1.7v4.1
	c0,1.5,0.7,2.3,2,2.3c0.3,0,0.7-0.1,1-0.2c0.3-0.1,0.7-0.4,1.2-0.8v0.9h1.6C101,38.6,101,32.3,101,32.3z"/>
<path class="st0" d="M106.3,35l2.2-2.7h-1.9l-2.3,3V30h-1.6v8.5h1.6v-1.8l0.7-0.9l1.7,2.7h2L106.3,35z"/>
<path class="st0" d="M115.4,32.3h-1.6v4.5c-0.5,0.3-0.9,0.5-1.3,0.5s-0.7-0.1-0.9-0.3c-0.2-0.2-0.3-0.8-0.3-1.6v-3.1h-1.7v4.1
	c0,1.5,0.7,2.3,2,2.3c0.3,0,0.7-0.1,1-0.2c0.3-0.1,0.7-0.4,1.2-0.8v0.9h1.6C115.4,38.6,115.4,32.3,115.4,32.3z"/>
<path class="st0" d="M121.9,37.8c0.6-0.6,0.8-1.4,0.8-2.4s-0.3-1.8-0.8-2.4c-0.6-0.6-1.3-0.9-2.3-0.9s-1.8,0.3-2.3,0.9
	c-0.6,0.6-0.8,1.4-0.8,2.4s0.3,1.8,0.8,2.4c0.6,0.6,1.3,0.9,2.4,0.9C120.6,38.7,121.3,38.4,121.9,37.8z M121,35.4
	c0,1.4-0.5,2.1-1.4,2.1c-1,0-1.5-0.7-1.5-2.1c0-1.5,0.5-2.2,1.5-2.2C120.5,33.2,121,34,121,35.4L121,35.4z"/>
<path class="st0" d="M127.7,35l2.2-2.7H128l-2.3,3V30h-1.6v8.5h1.6v-1.8l0.7-0.9l1.7,2.7h2L127.7,35z"/>
<path class="st0" d="M136.6,34.2c0-0.7-0.2-1.3-0.7-1.6s-1.2-0.5-2.3-0.5c-0.7,0-1.4,0.1-2.3,0.3v1.3h0.1c0.8-0.3,1.4-0.5,1.8-0.5
	c0.6,0,1.1,0.1,1.3,0.3c0.3,0.2,0.4,0.5,0.4,0.8v0.2c-1.7,0.1-2.8,0.3-3.3,0.7s-0.8,0.9-0.8,1.6c0,0.6,0.2,1,0.5,1.4
	c0.4,0.4,0.8,0.5,1.4,0.5c0.4,0,0.7-0.1,1-0.2s0.7-0.4,1.2-0.8v0.8h1.6v-4.3H136.6z M133.7,37.6c-0.4,0-0.7-0.1-0.9-0.2
	c-0.2-0.1-0.3-0.4-0.3-0.7s0.1-0.6,0.4-0.8c0.3-0.2,0.9-0.3,2-0.4V37C134.5,37.4,134.1,37.6,133.7,37.6L133.7,37.6z"/>
<path class="st0" d="M144.1,38.6c1.1,0,1.9-0.2,2.6-0.7c0.6-0.5,1-1.1,1-1.9c0-0.3,0-0.5-0.1-0.7s-0.2-0.4-0.3-0.6
	c-0.1-0.2-0.3-0.3-0.6-0.5c-0.2-0.2-0.6-0.3-1.1-0.4c-0.5-0.1-1-0.2-1.4-0.3s-0.7-0.2-0.9-0.4s-0.3-0.4-0.3-0.6
	c0-0.3,0.1-0.5,0.4-0.7c0.3-0.2,0.7-0.3,1.1-0.3c1,0,1.8,0.3,2.6,0.9h0.2v-1.6c-0.9-0.4-1.8-0.5-2.8-0.5s-1.8,0.2-2.4,0.7
	c-0.6,0.5-0.9,1.1-0.9,1.8c0,0.6,0.2,1.1,0.6,1.5c0.4,0.4,0.9,0.7,1.6,0.8c0.7,0.2,1.2,0.3,1.5,0.3c0.4,0.1,0.7,0.2,0.8,0.4
	c0.1,0.1,0.2,0.3,0.2,0.6s-0.2,0.6-0.5,0.7c-0.3,0.2-0.7,0.3-1.2,0.3s-1-0.1-1.5-0.3s-1-0.5-1.4-0.8h-0.2V38
	C142.1,38.4,143.1,38.6,144.1,38.6L144.1,38.6z"/>
<path class="st0" d="M153.7,37.8c0.6-0.6,0.8-1.4,0.8-2.4s-0.3-1.8-0.8-2.4c-0.6-0.6-1.3-0.9-2.3-0.9s-1.8,0.3-2.3,0.9
	c-0.6,0.6-0.8,1.4-0.8,2.4s0.3,1.8,0.8,2.4c0.6,0.6,1.3,0.9,2.4,0.9C152.3,38.7,153.1,38.4,153.7,37.8z M152.8,35.4
	c0,1.4-0.5,2.1-1.4,2.1c-1,0-1.5-0.7-1.5-2.1c0-1.5,0.5-2.2,1.5-2.2C152.3,33.2,152.8,34,152.8,35.4L152.8,35.4z"/>
<path class="st0" d="M160,30.1c-0.4-0.1-0.8-0.1-1.3-0.1c-1.5,0-2.3,0.7-2.3,2.1v0.2h-0.8v1.1h0.8v5.1h1.7v-5.1h1.5v-1.1H158v-0.1
	c0-0.4,0.1-0.7,0.2-0.8c0.2-0.2,0.5-0.2,0.9-0.2c0.3,0,0.5,0,0.8,0.1l0,0v-1.2H160z"/>
<path class="st0" d="M164.8,37.3L164.8,37.3c-0.3,0.1-0.6,0.2-0.8,0.2c-0.4,0-0.7-0.1-0.8-0.3c-0.2-0.2-0.3-0.6-0.3-1.3v-2.6h1.9
	v-1.1h-1.9v-1.7h-1.6v1.7h-0.8v1.1h0.8v3.2c0,0.7,0.2,1.2,0.5,1.5s0.9,0.5,1.6,0.5c0.5,0,1-0.1,1.4-0.2L164.8,37.3L164.8,37.3z"/>
<path class="st0" d="M169.4,38.5c1.1,0,1.9-0.2,2.5-0.7c0.6-0.4,0.9-1.1,0.9-1.8c0-1.1-0.6-1.8-1.7-2l0,0c0.8-0.4,1.1-0.9,1.1-1.7
	c0-0.6-0.2-1-0.7-1.4c-0.4-0.3-1.3-0.5-2.5-0.5h-2.9v8.1H169.4z M168.3,31.7c0.7,0,1.1,0,1.3,0.1s0.4,0.2,0.5,0.3
	c0.1,0.1,0.1,0.3,0.1,0.5c0,0.3-0.1,0.5-0.2,0.6c-0.1,0.2-0.3,0.3-0.5,0.3c-0.2,0.1-0.6,0.1-1.2,0.1h-0.7v-2h0.7V31.7z M168.7,34.8
	c0.8,0,1.3,0,1.5,0.1s0.4,0.2,0.5,0.4s0.2,0.4,0.2,0.7s-0.1,0.5-0.2,0.6c-0.1,0.2-0.3,0.3-0.5,0.4c-0.2,0.1-0.5,0.1-0.7,0.2
	c-0.3,0-0.6,0-1.1,0h-0.6v-2.4H168.7z"/>
<path class="st0" d="M179.4,34.2c0-0.7-0.2-1.3-0.7-1.6s-1.2-0.5-2.3-0.5c-0.7,0-1.4,0.1-2.3,0.3v1.3h0.1c0.8-0.3,1.4-0.5,1.8-0.5
	c0.6,0,1.1,0.1,1.3,0.3c0.3,0.2,0.4,0.5,0.4,0.8v0.2c-1.7,0.1-2.8,0.3-3.3,0.7s-0.8,0.9-0.8,1.6c0,0.6,0.2,1,0.5,1.4
	c0.4,0.4,0.8,0.5,1.4,0.5c0.4,0,0.7-0.1,1-0.2c0.3-0.1,0.7-0.4,1.2-0.8v0.8h1.6v-4.3H179.4z M176.5,37.6c-0.4,0-0.7-0.1-0.9-0.2
	c-0.2-0.1-0.3-0.4-0.3-0.7s0.1-0.6,0.4-0.8c0.3-0.2,0.9-0.3,2-0.4V37C177.4,37.4,177,37.6,176.5,37.6L176.5,37.6z"/>
<path class="st0" d="M187,34.4c0-1.5-0.7-2.3-2-2.3c-0.3,0-0.7,0.1-1,0.2c-0.3,0.1-0.7,0.4-1.2,0.8v-0.9h-1.6v6.2h1.6v-4.5
	c0.5-0.3,0.9-0.5,1.3-0.5c0.4,0,0.7,0.1,0.9,0.3s0.3,0.7,0.3,1.6v3.1h1.7V34.4z"/>
<path class="st0" d="M191.8,35l2.2-2.7h-1.9l-2.3,3V30h-1.6v8.5h1.6v-1.8l0.7-0.9l1.7,2.7h2L191.8,35z"/>
<path class="st0" d="M205.6,30.4h-1.8v3.1h-3.4v-3.1h-1.8v8.1h1.8v-3.7h3.4v3.7h1.8V30.4z"/>
<path class="st0" d="M211.7,30.4h-2l-3.1,8.1h1.8l0.6-1.8h3.2l0.6,1.8h1.9L211.7,30.4z M209.5,35.5l1.1-3.3l1.1,3.3H209.5z"/>
<path class="st0" d="M224.2,30.4l-1.4,5.5l-1.5-5.5h-1.8l-1.5,5.5l-1.4-5.5h-1.8l2.3,8.1h1.6l1.6-6l1.7,6h1.6l2.3-8.1H224.2z"/>
<path class="st0" d="M231.4,34.2l3.3-3.8h-2.1l-3.2,3.8v-3.8h-1.8v8.1h1.8v-2.7l0.6-0.7l2.7,3.4h2.2L231.4,34.2z"/>
<path class="st0" d="M238.2,38.6c1.1,0,1.9-0.2,2.6-0.7c0.6-0.5,1-1.1,1-1.9c0-0.3,0-0.5-0.1-0.7s-0.2-0.4-0.3-0.6
	c-0.1-0.2-0.3-0.3-0.6-0.5c-0.2-0.2-0.6-0.3-1.1-0.4c-0.5-0.1-1-0.2-1.4-0.3s-0.7-0.2-0.9-0.4s-0.3-0.4-0.3-0.6
	c0-0.3,0.1-0.5,0.4-0.7c0.3-0.2,0.7-0.3,1.1-0.3c1,0,1.8,0.3,2.6,0.9h0.2v-1.6c-0.9-0.4-1.8-0.5-2.8-0.5s-1.8,0.2-2.4,0.7
	c-0.6,0.5-0.9,1.1-0.9,1.8c0,0.6,0.2,1.1,0.6,1.5c0.4,0.4,0.9,0.7,1.6,0.8c0.7,0.2,1.2,0.3,1.5,0.3c0.4,0.1,0.7,0.2,0.8,0.4
	c0.1,0.1,0.2,0.3,0.2,0.6s-0.2,0.6-0.5,0.7c-0.3,0.2-0.7,0.3-1.2,0.3s-1-0.1-1.5-0.3s-1-0.5-1.4-0.8h-0.2V38
	C236.2,38.4,237.2,38.6,238.2,38.6L238.2,38.6z"/>
<path class="st0" d="M252.7,37.5c0.7-0.8,1.1-1.8,1.1-3.1s-0.4-2.3-1.1-3.1c-0.7-0.8-1.7-1.1-2.9-1.1s-2.2,0.4-2.9,1.1
	c-0.7,0.8-1.1,1.8-1.1,3.1s0.4,2.3,1.1,3.1c0.7,0.8,1.7,1.1,2.9,1.1C251.1,38.7,252,38.3,252.7,37.5z M251.4,32.3
	c0.4,0.5,0.6,1.2,0.6,2.2c0,0.9-0.2,1.7-0.6,2.2c-0.4,0.5-0.9,0.8-1.5,0.8s-1.2-0.3-1.5-0.8c-0.4-0.5-0.6-1.2-0.6-2.2
	c0-0.9,0.2-1.7,0.6-2.2c0.4-0.5,0.9-0.8,1.5-0.8S251,31.8,251.4,32.3z"/>
<path class="st0" d="M265.5,32.3h-4.2v-0.1c0-0.4,0.1-0.7,0.2-0.8c0.2-0.2,0.5-0.2,0.9-0.2c0.2,0,0.5,0,0.8,0.1l0,0v-1.2
	c-0.4-0.1-0.8-0.1-1.3-0.1c-1.5,0-2.3,0.7-2.3,2.1v0.2H257v-0.1c0-0.4,0.1-0.7,0.2-0.8c0.2-0.2,0.5-0.2,0.9-0.2c0.3,0,0.5,0,0.8,0.1
	l0,0v-1.2c-0.4-0.1-0.8-0.1-1.3-0.1c-1.5,0-2.3,0.7-2.3,2.1v0.2h-0.8v1.1h0.8v5.1h1.7v-5.2h2.6v5.2h1.7v-5.2h2.5v5.2h1.6L265.5,32.3
	L265.5,32.3z M265.5,30h-1.7v1.5h1.7V30z"/>
<path class="st0" d="M272.2,36.7L272.2,36.7c-0.7,0.5-1.3,0.8-1.9,0.8s-1-0.2-1.3-0.5c-0.3-0.4-0.5-0.9-0.5-1.5
	c0-0.7,0.2-1.2,0.5-1.6c0.3-0.4,0.7-0.6,1.3-0.6c0.6,0,1.2,0.3,1.8,0.8h0.1v-1.5c-0.6-0.3-1.3-0.5-1.9-0.5c-1,0-1.9,0.3-2.5,0.9
	c-0.6,0.6-0.9,1.4-0.9,2.4s0.3,1.8,0.9,2.4c0.6,0.6,1.5,0.8,2.5,0.8c0.6,0,1.2-0.2,1.9-0.5V36.7z"/>
<path class="st0" d="M275.2,30h-1.8v1.5h1.8V30z M275.2,32.3h-1.6v6.2h1.6V32.3z"/>
<path class="st0" d="M282,34.2c0-0.7-0.2-1.3-0.7-1.6s-1.2-0.5-2.3-0.5c-0.7,0-1.4,0.1-2.3,0.3v1.3h0.1c0.8-0.3,1.4-0.5,1.8-0.5
	c0.6,0,1.1,0.1,1.3,0.3c0.3,0.2,0.4,0.5,0.4,0.8v0.2c-1.7,0.1-2.8,0.3-3.3,0.7s-0.8,0.9-0.8,1.6c0,0.6,0.2,1,0.5,1.4
	c0.4,0.4,0.8,0.5,1.4,0.5c0.4,0,0.7-0.1,1-0.2c0.3-0.1,0.7-0.4,1.2-0.8v0.8h1.6L282,34.2L282,34.2z M279.1,37.6
	c-0.4,0-0.7-0.1-0.9-0.2c-0.2-0.1-0.3-0.4-0.3-0.7s0.1-0.6,0.4-0.8s0.9-0.3,2-0.4V37C279.9,37.4,279.5,37.6,279.1,37.6L279.1,37.6z"
	/>
<path class="st0" d="M285.6,30H284v8.5h1.6V30z"/>
<path class="st0" d="M292.4,38.7c0.9,0,1.6-0.2,2.2-0.6c0.5-0.4,0.8-0.9,0.8-1.5c0-0.4-0.1-0.8-0.4-1.1c-0.2-0.3-0.6-0.5-1-0.6
	s-0.9-0.2-1.3-0.3c-0.3-0.1-0.6-0.2-0.7-0.3s-0.2-0.3-0.2-0.5s0.1-0.4,0.3-0.5c0.2-0.1,0.5-0.2,0.9-0.2c0.7,0,1.4,0.3,2.1,0.8l0,0
	v-1.5c-0.6-0.3-1.3-0.4-2.1-0.4c-0.9,0-1.6,0.2-2.1,0.6c-0.5,0.4-0.8,0.9-0.8,1.5c0,0.3,0.1,0.6,0.2,0.8s0.3,0.5,0.5,0.6
	c0.2,0.2,0.6,0.3,1,0.4c0.4,0.1,0.8,0.2,1,0.2c0.3,0.1,0.6,0.2,0.7,0.3s0.2,0.2,0.2,0.4c0,0.5-0.4,0.7-1.2,0.7
	c-0.8,0-1.6-0.3-2.3-0.9h-0.1v1.5C290.8,38.5,291.5,38.7,292.4,38.7L292.4,38.7z"/>
<path class="st0" d="M298.2,30h-1.8v1.5h1.8V30z M298.2,32.3h-1.6v6.2h1.6V32.3z"/>
<path class="st0" d="M303.6,37.3L303.6,37.3c-0.3,0.1-0.6,0.2-0.8,0.2c-0.4,0-0.7-0.1-0.8-0.3c-0.2-0.2-0.3-0.6-0.3-1.3v-2.6h1.9
	v-1.1h-1.9v-1.7h-1.6v1.7h-0.8v1.1h0.8v3.2c0,0.7,0.2,1.2,0.5,1.5s0.9,0.5,1.6,0.5c0.5,0,1-0.1,1.4-0.2L303.6,37.3L303.6,37.3z"/>
<path class="st0" d="M310.3,35.1c0-2-0.9-3-2.8-3c-1,0-1.8,0.3-2.4,0.9c-0.6,0.6-0.9,1.4-0.9,2.5c0,1,0.3,1.8,0.9,2.4
	c0.6,0.6,1.5,0.8,2.7,0.8c0.7,0,1.5-0.2,2.4-0.5v-1.4h-0.1c-0.7,0.5-1.4,0.8-2.1,0.8c-1.3,0-2.1-0.6-2.1-1.9h4.4V35.1z M305.9,34.7
	c0.1-1.1,0.5-1.6,1.5-1.6c0.9,0,1.3,0.5,1.3,1.6H305.9z"/>
<path class="st1" d="M91,19.5c0.4,0.4,0.6,0.6,0.8,0.8l0.8-1.4c-0.9-0.9-1.4-1.3-1.5-1.4c0.7-1.3,1.2-2.4,1.4-3.5l-0.3-0.3H91v-1.8
	h-1.7v1.8H88v1.4h2.5c-0.5,1.6-1.5,3.1-3,4.4l0.8,1.2c0.4-0.3,0.7-0.6,1-0.9v4.4H91V19.5z M100.7,12.3h-8.3v1.4h8.3V12.3z M100,14.3
	h-7v3.2h7.1L100,14.3L100,14.3z M94.7,16.3v-0.9h3.6v0.9H94.7z M98.6,24.1h1.8V18h-7.7v6.1h1.7v-0.4h4.2V24.1z M95.6,20.3h-1.3v-0.9
	h1.3V20.3z M97.3,20.3v-0.9h1.3v0.9H97.3z M97.3,21.4h1.3v1h-1.3V21.4z M94.4,21.4h1.3v1h-1.3V21.4z"/>
<path class="st1" d="M115.2,12.1H103v12.1h1.8V13.6h8.5v8.5c0,0.1,0,0.2-0.1,0.3c-0.1,0.1-0.2,0.1-0.3,0.1h-1.5l0.2,1.7h1.9
	c0.4,0,0.8-0.1,1.1-0.4c0.3-0.3,0.5-0.6,0.5-1L115.2,12.1L115.2,12.1z M112.6,17.9H111v2.7h-1v-3.3h3v-1.4h-1.3
	c0.4-0.6,0.6-1.2,0.9-1.7l-1.8-0.4c-0.2,0.6-0.5,1.3-0.9,2.1h-1.4c-0.5-1.2-0.8-1.9-1-2.1l-1.6,0.5c0.1,0.2,0.4,0.7,0.8,1.6h-1.4
	v1.4h3v3.3h-0.9v-2.7h-1.7v4.7h1.7V22h5.2C112.6,22,112.6,17.9,112.6,17.9z"/>
<path class="st1" d="M121.4,15.2c-0.2-0.4-0.7-1.3-1.6-2.8l-1.8,0.9c1.2,2,2.1,3.8,2.8,5.4l2-0.9C122,16.5,121.6,15.6,121.4,15.2z
	 M127.5,12.6c-0.2,2.4-0.6,4.2-1.2,5.5c-0.7,1.3-1.6,2.3-2.8,3c-1.2,0.7-2.7,1.2-4.4,1.5l0.6,1.8c1.8-0.3,3.4-0.7,4.7-1.5
	c1.3-0.7,2.3-1.6,3.1-2.8c0.8-1.1,1.3-2.2,1.5-3.3c0.3-1.1,0.5-2.4,0.6-4L127.5,12.6z"/>
<path class="st1" d="M132.7,12.9v1.8h8.6c-0.1,1.6-0.5,2.9-1,3.9s-1.4,1.8-2.7,2.5s-2.9,1.1-4.8,1.3l0.5,1.8
	c2.2-0.2,4.2-0.7,5.7-1.6c1.6-0.9,2.7-2.1,3.4-3.8c0.7-1.6,1.1-3.6,1.1-5.9H132.7z"/>
<path class="st1" d="M149.9,15.6v-3.7h-2.2v12.3h2.2v-6.7c2.1,0.7,4.1,1.7,6,3l1.3-1.6C154.6,17.5,152.2,16.3,149.9,15.6L149.9,15.6
	z"/>
<path class="st1" d="M169.3,17.9c-0.5-1.6-0.7-3.3-0.7-5.2v-0.2h-2.1V13c0,1,0.1,2.1,0.3,3.5s0.6,2.7,1.2,4c0.6,1.3,1.4,2.5,2.4,3.6
	l1.5-1.4C170.7,21.1,169.8,19.5,169.3,17.9z M161.9,12.5c0,2.4-0.2,4.2-0.6,5.2c-0.3,1-0.7,2-1.2,2.7c-0.5,0.8-1.1,1.6-2,2.4
	l1.4,1.3c1-0.9,1.9-2,2.5-3.1c0.7-1.1,1.1-2.3,1.4-3.5c0.3-1.2,0.4-2.9,0.4-5H161.9z M171.1,11.2l-0.9,0.3c0.4,0.9,0.7,1.6,0.9,2.1
	l1-0.4C171.8,12.6,171.5,11.9,171.1,11.2L171.1,11.2z M169.3,11.7l-0.9,0.3c0.4,0.9,0.7,1.6,0.9,2.1l1-0.4
	C170,13.1,169.7,12.4,169.3,11.7L169.3,11.7z"/>
<path class="st1" d="M175.5,12.6l-1.1,1.6c1.8,0.9,3,1.5,3.5,1.8s1.1,0.7,1.8,1.1l1.3-1.7C178.8,14.1,177,13.2,175.5,12.6
	L175.5,12.6z M184.9,16c-0.7,1.1-1.3,1.9-1.8,2.5s-1.2,1.1-2,1.6s-1.7,1-2.7,1.3s-2.3,0.6-3.9,0.7L175,24c2.9-0.3,5.2-1,7.1-2.1
	c1.9-1.1,3.4-2.8,4.5-4.9L184.9,16z"/>
<path class="st1" d="M195.1,13.3c0.1-0.4,0.3-0.8,0.5-1.3l-2.1-0.2c-0.8,2.6-2.4,4.7-4.9,6.3l1.1,1.4c1.9-1.1,3.4-2.6,4.6-4.4h4.5
	c-0.4,2.1-1.3,3.8-2.6,4.9c-1.3,1.2-3.1,1.9-5.3,2.4l0.7,1.8c3.1-0.7,5.4-1.8,6.9-3.4s2.4-3.6,2.6-6.2l0.1-1.3
	C201.2,13.3,195.1,13.3,195.1,13.3z"/>
<path class="st1" d="M211,16.1h5.1v-1.7H211v-2.2h-2.1v2.2h-5.2v1.7h5.2v8.1h2.1V16.1z M214.9,19.5c-0.5-1-0.8-1.9-1-2.6l-1.9,0.3
	c0.2,1,0.6,2.1,1.2,3.3c0.6,1.3,1.3,2.3,2.1,3.1l1.7-1.1C216.1,21.5,215.4,20.5,214.9,19.5z M206,16.9c-0.1,0.6-0.4,1.4-0.8,2.4
	c-0.4,1-1.2,2.1-2.2,3.1l1.6,1.1c1.7-1.6,2.9-3.7,3.5-6.4L206,16.9z"/>
<path class="st1" d="M229.8,17.4h-11.3v1.8h11.3V17.4z"/>
<path class="st1" d="M238.8,13.3c0.1-0.4,0.3-0.8,0.5-1.3l-2.1-0.2c-0.8,2.6-2.4,4.7-4.9,6.3l1.1,1.4c1.9-1.1,3.4-2.6,4.6-4.4h4.5
	c-0.4,2.1-1.3,3.8-2.6,4.9c-1.3,1.2-3.1,1.9-5.3,2.4l0.7,1.8c3.1-0.7,5.4-1.8,6.9-3.4s2.4-3.6,2.6-6.2l0.1-1.3
	C244.9,13.3,238.8,13.3,238.8,13.3z"/>
<path class="st1" d="M254.3,18.5c0.6-0.8,1.2-1.6,1.6-2.3c0.4-0.7,0.8-1.7,1.1-2.9l-0.6-0.5h-9v1.8h6.9c-0.8,1.7-2,3.3-3.7,4.8
	s-3.3,2.6-5.1,3.3l1,1.6c2.2-0.9,4.4-2.4,6.4-4.3c2.3,2,3.9,3.4,4.7,4.3l1.5-1.5C257.9,21.5,256.3,20.1,254.3,18.5L254.3,18.5z"/>
<path class="st1" d="M43.8,9.7c-0.1-0.2-0.2-0.4-0.3-0.6c-0.1-0.2-0.2-0.4-0.4-0.6l0,0c-0.1-0.2-0.3-0.3-0.4-0.4
	c-0.1-0.1-0.3-0.3-0.5-0.4s-0.3-0.2-0.5-0.3c-0.2-0.1-0.3-0.1-0.5-0.2l0,0c0.4-0.2,0.7-0.4,1-0.6c0.2-0.2,0.4-0.4,0.6-0.6
	c0.1-0.2,0.2-0.3,0.3-0.5s0.1-0.3,0.1-0.4l0.1-0.2V4.7V4.5V4.3c0-0.3,0-0.5,0-0.8c0-0.2-0.1-0.5-0.1-0.7c-0.1-0.2-0.1-0.4-0.2-0.6
	c-0.1-0.2-0.2-0.3-0.3-0.5c-0.1-0.1-0.2-0.2-0.3-0.3c-0.1-0.1-0.3-0.2-0.4-0.3C41.9,1,41.7,1,41.5,0.9S41.2,0.8,41,0.8l-0.3-0.1
	h-0.4h-0.4h-0.5h-0.9h-0.9h-0.9h-0.9v0.6l0,0h0.4c0.1,0,0.2,0,0.3,0s0.2,0.1,0.3,0.1S37,1.5,37,1.6c0.1,0.1,0.1,0.2,0.2,0.3l0.1,0.2
	l0.1,0.2v0.2v0.3v0.3v0.3v0.3V4c0,0,0,0.4,0,1.2v2.5v2.6v1.4v0.1v0.1V12v0.1v0.1v0.3v0.4v0.3v0.1l0,0v0.1l-0.1,0.2
	c-0.1,0.1-0.1,0.1-0.2,0.2c-0.1,0.1-0.2,0.1-0.3,0.2l-0.6,0l-0.3,0.1h-0.2h-0.1l0,0v0.6l0,0h1.2H38h1.2h1.2c0.2,0,0.5,0,0.7-0.1
	c0.2,0,0.4-0.1,0.6-0.2c0.2-0.1,0.4-0.2,0.6-0.3c0.2-0.1,0.4-0.3,0.5-0.4c0.2-0.2,0.3-0.3,0.4-0.5c0.1-0.2,0.2-0.4,0.3-0.6
	c0.1-0.2,0.1-0.4,0.2-0.7c0-0.2,0.1-0.5,0.1-0.8l0,0c0-0.3,0-0.5,0-0.7C43.9,10.2,43.9,9.9,43.8,9.7z M41.7,4.4c0,0.2,0,0.5-0.1,0.7
	c0,0.2-0.1,0.4-0.2,0.6c-0.1,0.2-0.2,0.3-0.3,0.5c-0.1,0.1-0.2,0.3-0.4,0.4c-0.1,0.1-0.2,0.2-0.4,0.2C40.2,6.9,40,6.9,39.9,7
	c-0.1,0-0.3,0.1-0.4,0.1c-0.1,0-0.3,0-0.5,0h-0.2c0-0.1,0-5.4,0-5.6l0,0H39c0.2,0,0.3,0,0.5,0.1c0.2,0,0.3,0.1,0.5,0.2
	c0.1,0.1,0.3,0.2,0.4,0.3c0.1,0.1,0.3,0.2,0.4,0.4c0.1,0.1,0.2,0.3,0.3,0.4c0.1,0.2,0.2,0.3,0.2,0.5c0.1,0.2,0.1,0.4,0.1,0.5
	C41.7,4,41.7,4.2,41.7,4.4L41.7,4.4z M39,11.7v-0.9c0,0,0-2.7,0-2.8h0.2l0,0l0,0l0,0h0.1h0.1h0.1l0,0c0.2,0,0.4,0,0.5,0.1
	c0.2,0,0.3,0.1,0.5,0.2c0.2,0.1,0.3,0.2,0.5,0.3c0.1,0.1,0.3,0.3,0.4,0.4c0.1,0.2,0.3,0.4,0.4,0.5C42,9.6,42,9.8,42.1,10
	s0.1,0.4,0.1,0.6c0,0.2,0,0.4,0,0.6l0,0c0,0.2,0,0.4,0,0.6c0,0.2-0.1,0.4-0.1,0.5c-0.1,0.2-0.1,0.3-0.2,0.5
	c-0.1,0.1-0.2,0.3-0.3,0.4c-0.1,0.1-0.2,0.2-0.3,0.3s-0.2,0.2-0.3,0.2c-0.1,0.1-0.2,0.1-0.4,0.1c-0.1,0-0.2,0-0.4,0
	c-0.1,0-0.3,0-0.4,0c-0.1,0-0.2-0.1-0.3-0.1c-0.1-0.1-0.2-0.1-0.2-0.2c-0.1-0.1-0.1-0.2-0.2-0.3L39,12.9l0-0.3v-0.4V11.7L39,11.7z"
	/>
<path class="st1" d="M15.2,12.7c-0.1-0.3-0.1-0.6-0.2-0.8c-0.1-0.3-0.2-0.5-0.4-0.8c-0.1-0.2-0.3-0.5-0.5-0.7s-0.4-0.4-0.6-0.6
	l-0.6-0.4L12.3,9l-0.6-0.4l-0.6-0.4c-0.2-0.1-0.4-0.3-0.6-0.5c-0.2-0.2-0.3-0.3-0.5-0.5C9.9,7.1,9.8,6.9,9.7,6.7
	C9.6,6.5,9.5,6.3,9.5,6.1c0-0.1,0-0.3-0.1-0.4c0-0.1,0-0.3,0-0.4s0-0.3,0-0.4s0.1-0.2,0.1-0.4c0-0.1,0.1-0.3,0.2-0.4
	C9.8,4.1,9.9,4,10,3.9s0.2-0.1,0.3-0.2c0.1-0.1,0.2-0.1,0.4-0.1c0.1,0,0.3,0,0.4,0c0.1,0,0.3,0.1,0.4,0.1c0.1,0.1,0.2,0.1,0.4,0.2
	C12,4,12.1,4.1,12.2,4.3l0.2,0.3L12.6,5l0.2,0.5l0.3,0.6l0.1,0.3h0.2h0.2l-0.4-3.2L13,3.1L12.7,3l-0.2-0.1l-0.2-0.1h-0.1h-0.3h-0.3
	h-0.3l-0.4,0.1c-0.2,0-0.4,0.1-0.6,0.2C9.9,3,9.8,3.1,9.6,3.2C9.4,3.4,9.2,3.5,9.1,3.7C8.9,3.9,8.8,4.1,8.7,4.3
	C8.6,4.5,8.4,4.7,8.4,5C8.3,5.2,8.2,5.5,8.2,5.8s0,0.5,0,0.8s0,0.6,0.1,0.9c0,0.3,0.1,0.5,0.2,0.7s0.2,0.5,0.3,0.7
	C9,9.2,9.1,9.4,9.3,9.5C9.5,9.7,9.7,9.9,9.9,10l1.8,1.1l0.6,0.4c0.2,0.1,0.4,0.3,0.6,0.5c0.2,0.2,0.3,0.3,0.4,0.5
	c0.1,0.2,0.2,0.4,0.3,0.6c0.1,0.2,0.2,0.4,0.2,0.6c0,0.2,0.1,0.4,0.1,0.5c0,0.2,0,0.3,0,0.5s0,0.3-0.1,0.5c0,0.1-0.1,0.3-0.1,0.4
	c-0.1,0.1-0.1,0.2-0.2,0.3c-0.1,0.1-0.2,0.2-0.3,0.3s-0.2,0.1-0.3,0.2s-0.2,0.1-0.4,0.1c-0.1,0-0.3,0-0.4,0c-0.1,0-0.3,0-0.4-0.1
	c-0.1,0-0.3-0.1-0.4-0.2c-0.1-0.1-0.3-0.2-0.4-0.3c-0.2-0.1-0.3-0.3-0.5-0.4c-0.1-0.2-0.3-0.3-0.4-0.5c-0.1-0.2-0.3-0.4-0.4-0.7
	c-0.1-0.2-0.2-0.5-0.4-0.8L9,13.2l-0.4,0.2l1.1,3.5l0.4,0.2l0.3,0.1l0.3,0.1l0.3,0.1l0.3,0.1l0.4,0.1h0.4h0.4h0.3
	c0.2,0,0.4-0.1,0.6-0.2c0.2-0.1,0.4-0.2,0.6-0.3c0.2-0.1,0.3-0.3,0.5-0.4c0.2-0.2,0.3-0.3,0.4-0.5c0.2-0.2,0.3-0.5,0.4-0.7
	c0.1-0.3,0.2-0.5,0.2-0.8s0.1-0.6,0.1-0.9C15.3,13.3,15.3,13,15.2,12.7z"/>
<path class="st1" d="M23.4,9.9c-0.1-0.3-0.2-0.6-0.3-0.9c-0.1-0.3-0.2-0.5-0.4-0.8c-0.1-0.2-0.3-0.5-0.5-0.7l0,0
	c-0.2-0.2-0.4-0.4-0.6-0.6s-0.4-0.3-0.7-0.4c-0.2-0.1-0.5-0.2-0.8-0.2s-0.5,0-0.8,0s-0.6,0.1-0.8,0.2c-0.3,0.1-0.5,0.2-0.7,0.4
	c-0.2,0.2-0.4,0.4-0.6,0.6S16.9,8,16.7,8.3c-0.1,0.3-0.2,0.5-0.3,0.8c-0.1,0.3-0.2,0.5-0.2,0.8s-0.1,0.6-0.1,0.9c0,0.3,0,0.6,0,0.9
	c0,0.3,0.1,0.7,0.2,1s0.2,0.6,0.3,0.9c0.1,0.3,0.3,0.5,0.4,0.8c0.2,0.2,0.4,0.5,0.6,0.7s0.4,0.4,0.6,0.5s0.4,0.2,0.7,0.3
	c0.2,0.1,0.5,0.1,0.7,0.2c0.2,0,0.5,0,0.8,0s0.5-0.1,0.7-0.2c0.2-0.1,0.4-0.2,0.6-0.3s0.4-0.3,0.6-0.5s0.3-0.4,0.5-0.7
	c0.1-0.2,0.3-0.5,0.4-0.8s0.2-0.6,0.2-0.8c0-0.3,0.1-0.6,0.1-0.9c0-0.3,0-0.7-0.1-1C23.6,10.6,23.5,10.2,23.4,9.9z M22.1,12.1
	c0,0.2,0,0.4,0,0.5c0,0.2,0,0.5-0.1,0.7c0,0.2-0.1,0.4-0.2,0.6c-0.1,0.2-0.2,0.4-0.2,0.6c-0.1,0.2-0.2,0.3-0.3,0.4
	c-0.1,0.1-0.2,0.2-0.4,0.3c-0.1,0.1-0.3,0.1-0.4,0.1s-0.3,0-0.4,0s-0.3-0.1-0.4-0.2c-0.1-0.1-0.3-0.2-0.4-0.4
	c-0.1-0.1-0.3-0.3-0.4-0.5s-0.3-0.4-0.4-0.6c-0.1-0.2-0.2-0.5-0.3-0.7c-0.1-0.2-0.2-0.5-0.2-0.7c-0.1-0.3-0.1-0.5-0.1-0.8
	c0-0.2,0-0.5-0.1-0.7c0-0.2,0-0.5,0-0.7s0-0.4,0.1-0.6C17.9,9.2,18,9,18,8.8c0.1-0.3,0.1-0.5,0.2-0.7s0.2-0.4,0.3-0.5
	c0.1-0.1,0.3-0.3,0.4-0.3c0.2-0.1,0.3-0.1,0.5-0.2c0.2,0,0.3,0,0.4,0s0.3,0.1,0.4,0.2s0.3,0.2,0.4,0.4C20.7,7.9,20.9,8,21,8.3
	c0.1,0.2,0.2,0.4,0.3,0.6c0.1,0.2,0.2,0.4,0.3,0.7c0.1,0.2,0.1,0.5,0.2,0.7c0.1,0.3,0.1,0.5,0.1,0.8s0,0.5,0.1,0.8
	C22.1,12,22.1,12,22.1,12.1z"/>
<path class="st1" d="M34.4,13.7h-0.2H34h-0.2h-0.2h-0.1h-0.2l-0.2-0.1l-0.2-0.1l-0.2-0.1l-0.1-0.1l-0.1-0.2l-0.1-0.2l-0.1-0.3
	l-0.1-0.3V12v-0.3c0,0-0.2-4.7-0.2-4.9c0.1,0,0.5,0,0.5,0h0.6h0.6h0.6l-0.1-1.3h-0.6H33h-0.6c0,0-0.4,0-0.5,0C32,5.4,32,3.6,32,3.6
	l0,0h-0.3l-0.1,0.2l-0.2,0.3l-0.2,0.4l-0.8,1.1L30,6.1l-0.2,0.3c-0.1,0.1-0.1,0.2-0.1,0.2v0.2l0.1,0.1L29.9,7L30,7h0.4h0.3
	c0,0,0.3,6,0.3,6v0.4l0.1,0.4l0.1,0.3c0,0.1,0.1,0.2,0.1,0.2c0,0.1,0.1,0.1,0.2,0.2c0.1,0.1,0.1,0.1,0.2,0.1s0.2,0.1,0.3,0.1
	c0.1,0,0.2,0,0.3,0.1l0,0l0,0l0,0l0,0l0,0l0,0l0,0l0,0l0,0l0,0l0,0l0,0h0.2h0.2h0.1l0,0l0.4-0.1l0.4-0.1l0.4-0.1l0.4-0.1v-0.5
	L34.4,13.7z"/>
<path class="st1" d="M50.5,14.1L50.5,14.1h-0.2h-0.1l0,0C50.1,14,50,14,49.9,13.9c-0.1-0.1-0.1-0.2-0.1-0.3s0-0.1,0-0.2v-0.1v-0.2
	v-0.3v-0.3v-0.4l0.3-3.6c0-0.2,0-0.4,0-0.6c0-0.2,0-0.4,0-0.5C50,7.1,50,6.9,50,6.8s-0.1-0.3-0.2-0.4c-0.1-0.1-0.1-0.2-0.2-0.3
	c-0.1-0.1-0.2-0.2-0.3-0.2c-0.1-0.1-0.2-0.1-0.3-0.2c-0.1,0-0.2-0.1-0.4-0.1c-0.1,0-0.3,0-0.4,0c-0.1,0-0.3,0.1-0.5,0.2
	S47.4,6,47.2,6.1c-0.2,0.1-0.4,0.3-0.5,0.4c-0.2,0.2-0.3,0.3-0.5,0.5c-0.1,0.2-0.3,0.3-0.4,0.5c-0.1,0.1-0.2,0.3-0.2,0.4
	c-0.1,0.1-0.1,0.3-0.1,0.4v0.1c0,0,0,0.1,0.1,0.1l0.1,0.1h0.2H46h0.1h0.1h0.1h0.1h0.1h0.1h0.1h0.2L47,7.9V7.6l0.1-0.2l0.1-0.2
	L47,6.9l0.1-0.1l0.1-0.1h0.2h0.2c0.1,0,0.2,0,0.3,0.1c0.1,0,0.2,0.1,0.3,0.2s0.2,0.2,0.2,0.3c0.1,0.1,0.1,0.2,0.2,0.4l0,0l0,0l0,0
	l0,0v0.2v0.2v0.3v0.3l-0.1,0.7v0.1v0.2l-0.7,0.4l-0.7,0.4l-0.7,0.4l-0.7,0.4l-0.1,0.1l-0.1,0.1l-0.1,0.1l-0.1,0.1l-0.1,0.2l-0.1,0.2
	v0.2v0.2v0.4v0.4v0.3l0.1,0.3c0.1,0.2,0.1,0.3,0.2,0.4c0.1,0.1,0.2,0.2,0.3,0.3s0.2,0.2,0.4,0.2c0.1,0,0.3,0.1,0.5,0.1h0.2H47
	l0.2-0.1l0.2-0.1l0.2-0.1l0.2-0.2l0.2-0.2l0.1-0.1v0.1v0.1v0.1v0.1v0.1l0.1,0.1l0.1,0.1l0.1,0.1l0,0l0,0l0,0l0.1,0.1l0.1,0.1h0.1
	h0.1h0.1H49h0.1h0.1h0.1h0.1h0.1h0.1h0.1h0.1h0.1H50l0,0l0,0h0.1h0.1h0.1l0.1-0.1l0.2-0.2v-0.4L50.5,14.1L50.5,14.1z M48.7,10.5
	c0,0.1-0.2,2.6-0.2,2.6v0.1l-0.1,0.1l-0.1,0.1l-0.1,0.1L48,13.8l-0.2,0.1h-0.2h-0.2h-0.2L47,13.8l0-0.1l-0.1-0.1
	c0-0.1-0.1-0.1-0.1-0.2c0-0.1-0.1-0.2-0.1-0.3v-0.3v-0.3l0,0l0,0l0,0l0,0c0-0.1,0-0.2,0.1-0.3c0-0.1,0.1-0.2,0.1-0.3
	s0.1-0.2,0.2-0.2c0.1-0.1,0.1-0.1,0.2-0.2h0.1l0.7-0.4l0.2-0.1l0.4-0.2C48.5,10.6,48.6,10.5,48.7,10.5z"/>
<path class="st1" d="M58.8,15.5c-0.1-0.1-0.2-0.1-0.2-0.2c-0.1-0.1-0.1-0.2-0.1-0.3s0-0.1,0-0.2v-0.1v-0.3l0.6-4.5l0.1-0.7
	c0-0.2,0-0.4,0-0.6c0-0.2,0-0.4,0-0.5c0-0.2,0-0.3-0.1-0.4c0-0.2-0.1-0.3-0.2-0.5c-0.1-0.1-0.2-0.3-0.3-0.4s-0.2-0.2-0.4-0.2
	c-0.1-0.1-0.3-0.1-0.5-0.1c-0.1,0-0.3,0-0.4,0c-0.1,0-0.3,0-0.4,0.1c-0.1,0-0.3,0.1-0.4,0.1C56.3,6.8,56.2,6.9,56,7l-0.3,0l-0.3,0.2
	l-0.3,0.2c0,0-0.1,0.1-0.2,0.1c0-0.1,0.1-0.6,0.1-0.6l0.1-0.4V6.2V6.1l0,0L54.9,6l-0.1-0.1l0,0l-0.4,0.2l-0.5,0.2l-0.5,0.2L53,6.8
	v0.3h0.1l0.1,0.1l0.1,0.1l0.1,0.1l0.1,0.2l0.1,0.2V8v0.1v0.1v0.1v0.2v0.2L52.8,14l0,0c0,0.1,0,0.2-0.1,0.3s-0.1,0.2-0.2,0.2
	c-0.1,0.1-0.2,0.1-0.3,0.2c-0.1,0-0.2,0-0.3,0l0,0h-0.1l-0.1,0.6l0.9,0.1l0.8,0.1l0.8,0.1l0.9,0.1l0.1-0.6h-0.3h-0.1
	c-0.1,0-0.2,0-0.3-0.1s-0.2-0.1-0.2-0.2c-0.1-0.1-0.1-0.2-0.1-0.3s0-0.1,0-0.2v-0.1l0,0l0,0c0,0,0.7-5.8,0.7-5.9L55,8.2L55.1,8h0.2
	l0.1-0.1l0.1-0.1l0.1-0.1l0.1-0.1h0.1h0.1h0.2h0.2h0.2c0.2,0,0.3,0.1,0.4,0.1c0.1,0.1,0.2,0.1,0.3,0.2s0.2,0.2,0.3,0.3
	c0.1,0.1,0.1,0.3,0.2,0.4l0.1,0.3v0.3v0.4V10l-0.6,4.5c0,0.1,0,0.2-0.1,0.3S57,15,56.9,15c-0.1,0.1-0.2,0.1-0.3,0.1s-0.2,0-0.3,0
	h-0.1H56l-0.1,0.6l0.9,0.1l0.8,0.1l0.8,0.1l0.9,0.1l0.1-0.6h-0.3C59,15.6,58.9,15.6,58.8,15.5z"/>
<path class="st1" d="M67.6,8.2L66.7,8l-0.9-0.2L65,7.7l-0.1,0.6L65,8.4l0.1,0.1l0.1,0.1l0.1,0.1v0.1v0.1V9v0.1v0.1l-0.1,0.2
	l-0.1,0.2l-0.2,0.3l-0.2,0.3l-0.3,0.4L64.1,11l-0.3,0c0,0-0.2,0.2-0.3,0.3v-0.2L63.9,9L65,2.7l0,0V2.6l0.1-0.4L64.9,2l0,0l-0.5,0.2
	l-0.5,0.2l-0.5,0.2l-0.5,0.2l-0.1,0.3l0,0l0,0l0,0h0.1L63,3.2l0.1,0.1l0.1,0.1v0.1l0.1,0.2V4v0.3c0,0.1,0,0.2,0,0.3L63,6.3l-0.6,3.3
	l-0.8,4.7v0.1v0.2l-0.1,0.3l-0.1,0.3c0,0.1-0.1,0.2-0.1,0.3s-0.1,0.1-0.2,0.2c-0.1,0.1-0.2,0.1-0.2,0.1c-0.1,0-0.2,0-0.3,0h-0.3
	l-0.1,0.6l0.9,0.1l0.9,0.1l0.9,0.1l0.9,0.2l0.1-0.4v-0.2h-0.1c-0.1,0-0.2-0.1-0.3-0.1s-0.2-0.1-0.2-0.2c-0.1-0.1-0.1-0.1-0.2-0.2
	c0-0.1-0.1-0.2-0.1-0.3l0,0v-0.2v-0.2v-0.2v-0.2c0,0,0.4-2.4,0.5-2.6c0,0.1,0.4,1.3,0.4,1.3l0.3,0.9c0.1,0.3,0.3,0.6,0.4,0.9
	c0.1,0.3,0.3,0.6,0.4,0.9c0.2,0.3,0.3,0.6,0.5,0.8l0.1,0.1v0.1l0.1,0.1l0.1,0.1l0.1,0.1l0.1,0.1h0.1l0,0l0,0l0.4,0.1l0.4,0.1
	l0.4,0.1l0.4,0.1h0.1l0,0l0,0v-0.2l0,0c0,0,0,0,0-0.1v-0.2l0,0l-0.1-0.1c-0.1,0-0.1-0.1-0.2-0.2c-0.1-0.2-0.3-0.3-0.4-0.6
	c-0.2-0.3-0.4-0.6-0.5-1l-0.1-0.2L66.1,15L66,14.9v-0.2l-0.1-0.2l-0.1-0.2L65.7,14l-0.1-0.2l-0.3-0.7L65,12.4l-0.3-0.7l-0.2-0.6
	l0.5-0.6l0.2-0.2l0.2-0.2l0.2-0.2l0.2-0.1l0.3-0.2l0.3-0.2l0.3-0.2L67,9.1L67.2,9l0.2-0.1h0.2h0.2H68h0.3h0.1h0.3l0.1-0.6L67.6,8.2z
	"/>
<path class="st1" d="M29.8,1.8V1.6V1.4c0-0.1,0-0.3-0.1-0.4c0-0.1-0.1-0.2-0.1-0.3c-0.1-0.1-0.1-0.2-0.2-0.3s-0.2-0.1-0.3-0.2l0,0
	l0,0l-0.2-0.1L28.6,0h-0.3H28c-0.2,0-0.5,0.1-0.7,0.1c-0.2,0.1-0.4,0.2-0.6,0.3s-0.4,0.3-0.5,0.5c-0.2,0.2-0.3,0.5-0.4,0.7
	c-0.1,0.3-0.2,0.5-0.3,0.8c-0.1,0.3-0.2,0.6-0.2,0.9s-0.1,0.6-0.1,0.9s0,0.7,0,1v0.1c0,0,0,0.3,0,0.4L24.9,6l-0.3,0.3l-0.3,0.3
	L24.1,7v0.6h0.3h0.3H25c0,0,0.2,0,0.3,0c0,0.1,0.1,1.8,0.1,1.8l0.1,0.9l0.2,2.7v0.3v0.3v0.2V14c0,0.1,0,0.2-0.1,0.3
	c0,0.1-0.1,0.2-0.2,0.3s-0.2,0.2-0.3,0.2c-0.1,0.1-0.2,0.1-0.3,0.1l0,0h-0.1v0.6l1.4-0.1l2.5-0.2v-0.6h-0.3c-0.1,0-0.3,0-0.4-0.1
	c-0.1,0-0.2-0.1-0.3-0.2c-0.1-0.1-0.2-0.2-0.3-0.3c-0.1-0.1-0.1-0.2-0.1-0.4l0,0l0,0v-0.1v-0.2v-0.2v-0.2l-0.3-3.5l0,0l0,0
	c0,0,0-0.1,0-0.5l-0.1-1.4c0.1,0,0.4,0,0.4,0h0.5h0.5h0.5l-0.1-1.3h-0.5h-0.5L27,6c0,0-0.3,0-0.4,0l-0.1-0.8l-0.1-0.9V3.5V2.8
	l0.1-0.6c0-0.2,0.1-0.4,0.1-0.6s0.1-0.3,0.2-0.4c0.1,0,0.2-0.1,0.2-0.1C27.1,1,27.2,1,27.3,1c0.1,0,0.1,0,0.2,0s0.1,0,0.2,0.1
	c0.1,0,0.1,0.1,0.2,0.1l0.2,0.2l0.2,0.2l0.2,0.2l0.2,0.3L29,2.4l0,0h0.2l0.2-0.1l0.1-0.1l0.1-0.1L29.7,2L29.8,1.8z"/>
<path class="st1" d="M34.1,39.2c-0.9,0-1.6-0.2-2.7-3l-6.7-18.4h-0.1h-0.2v0.1c0,0-0.4,1.2-1.3,1.9H23c0,0,0.2,0.8,0.2,0.9
	l-2.4,16.7c-0.1,0.5-0.4,1.7-0.7,2.3c-0.4-0.4-0.8-1.1-1.2-2.7l-2.8-11.7c-0.8-3.2,0.1-3.5,1.1-3.9l0.5-0.2v-0.1l-0.2-0.9h-0.1
	c-2.6,0.4-5.1,0.9-7.5,1.4H9.8l0.3,1h0.1c2.3-0.5,3.1,1.1,3.5,2.9c0,0,0.5,2.3,1.1,4.8c-2.6,0.4-5.2,1-7.8,1.7
	c-0.6-2.6-1.2-4.9-1.2-4.9c-0.4-1.6-0.6-3.3,1.9-4h0.1l-0.3-1H7.4C5,22.7,2.6,23.3,0.2,24L0,24.1l0.4,1h0.5C2,25,2.9,24.9,3.6,28
	l2.9,12c0.7,2.9,0.1,3.2-0.9,3.9C5.4,44,5.2,44.2,5,44.3l-0.1,0.1l0.2,1h0.1c2.4-0.8,4.8-1.5,7.2-2.1h0.1l-0.3-1h-0.1
	c-0.9,0.2-1.6,0.2-2.4-0.4c-0.4-0.4-0.8-1.3-1.2-2.8c0,0-0.6-2.5-1.2-5.2c2.6-0.7,5.2-1.3,7.8-1.8c0.6,2.7,1.2,5.2,1.2,5.2
	c0.4,1.5,0.4,2.5,0.2,3c-0.4,0.9-1,1.2-2,1.4h-0.1l0.2,1h0.1c1.3-0.3,2.7-0.6,4.1-0.8c0.2,0,0.5-0.1,0.7-0.1
	c0.6-0.1,2.7-0.4,2.7-0.4h0.1l0,0c0.7-0.1,1.5-0.2,2.2-0.3h0.1l-0.1-1h-0.6c-0.4,0-1.1,0-1.5-0.5c-0.3-0.3-0.5-0.9-0.5-1.6
	c0-0.2,0-0.4,0-0.7c0,0,0.3-2.3,0.7-5.1c1.4-0.2,2.8-0.3,4.2-0.5c0.9,2.4,1.6,4.4,1.6,4.4c0.2,0.7,0.4,1.3,0.4,1.8
	c0,0.4-0.1,0.7-0.2,0.9c-0.3,0.5-0.8,0.6-1.1,0.7l-0.2,0.1l0.1,1l0,0l0,0h0.1c2.1-0.2,4.2-0.3,6.3-0.4h0.1l-0.1-1.1L34.1,39.2z
	 M23.2,30.2c0.4-2.8,0.8-5.7,0.9-6.8c0.2,0.4,1.3,3.5,2.4,6.5C25.3,29.9,24.3,30,23.2,30.2z"/>
<path class="st1" d="M76.4,24.6c-0.4-0.6-0.8-1-1-1.1c-0.4-0.3-1-0.6-1.7-0.8c-1.3-0.3-2.6,0-3.8,1c-1.3,1-2.1,2.5-2.5,4.4
	c-0.4,1.7-0.1,3.3,0.7,4.6c0.4,0.7,1,1.5,1.5,2.1c0.3,0.4,0.6,0.8,0.9,1.3c0.8,1.3,1.1,2.7,0.8,4c-0.2,1.1-0.7,2-1.3,2.5
	c-0.6,0.6-1.2,0.7-2,0.6c-0.8-0.2-1.5-0.7-2-1.7c-0.6-1-0.9-2.4-0.9-4.2v-0.9l-0.9,0.1l-0.5,5c-0.7-0.7-1.7-2-2.7-4.8
	c0,0-2.6-6.5-2.9-7.3c0.1-0.1,4.4-4.7,4.4-4.7c1.6-1.6,3-2.3,4.3-2.2h0.1l0.3-1l-0.3-0.1l0,0c-1.8-0.4-3.6-0.7-5.4-1h-0.1v0.1
	l-0.4,1h0.1c0.4,0.1,0.7,0.3,0.8,0.6c0.1,0.4,0.1,1.2-1.1,2.5c0,0-4,4.5-5,5.7l1-6c0.4-2.4,1-3.1,2.7-3.1h0.1l0.2-1h-0.1
	c-2.3-0.4-4.6-0.7-6.9-0.9h-0.2v0.1l-0.1,0.9l0.5,0.2c1.1,0.3,2,0.6,1.4,3.8l-2.1,11.8c-0.6,3.2-1.3,3.3-2.5,3.4L49,39.6v0.1
	l-0.2,0.9h0.1c2.5,0.2,5,0.6,7.4,1h0.1l0.2-1h-0.1c-0.5-0.1-1.2-0.5-1.8-1.3c-0.4-0.6-0.3-1.7,0-3l0.9-5.3l3.2,8.2
	c1.2,3.1,4.9,4,4.9,4l0.6,0.1h0.1v-0.1c0.3,0.2,0.5,0.4,0.9,0.6c0.7,0.5,1.3,0.7,2,0.9c1.4,0.3,2.7,0.1,3.9-0.7
	c1.4-0.9,2.3-2.3,2.7-4.3c0.5-2.2,0.2-3.9-0.7-5.3l-1.3-1.9l-1.2-1.8c-0.9-1.3-1.1-2.6-0.9-3.9c0.2-0.9,0.5-1.6,1-2.2
	c0.6-0.7,1.2-0.9,2-0.7c0.8,0.2,1.3,0.8,1.6,1.9c0.1,0.6,0.1,1.7,0.1,3.2v0.5v0.1l0.7,0.2l1.4-4.9L76.4,24.6z"/>
<path class="st1" d="M51.5,20.3h0.2v-0.1l0.1-0.9h-0.1c-1.8-0.2-3.6-0.3-5.4-0.4h-0.2l-0.1,1l0.4,0.1c0.7,0.2,1.5,0.5,1.5,1.9
	c0,0.4-0.1,1-0.2,1.6c0,0-2.4,9.7-2.7,10.7c-0.2-1-2.2-11.4-2.2-11.4c-0.1-0.5-0.2-1-0.2-1.4c0-0.5,0.1-0.8,0.2-1.1
	c0.2-0.4,0.7-0.4,1.1-0.5l0.6-0.1v-0.1v-0.9h-0.2c-2-0.1-4-0.1-6-0.1h-0.1h-0.3v0.1v0.9H38c0.8,0.2,1.4,0.5,1.7,1.1
	c0.2,0.4,0.3,0.8,0.3,1.1c0,0.6-0.2,1.1-0.2,1.2c-0.1,0.4-2.3,8.5-2.9,10.7c-0.2-1-2.1-11.4-2.1-11.4c-0.1-0.3-0.1-0.5-0.1-0.7
	c0-1.5,1.1-1.7,1.7-1.9l0.4-0.1v-0.1v-0.9h-0.1c-1.9,0-3.9,0.1-5.8,0.2h-0.3l0.1,1l0.2,0.1c0.9,0.4,1.1,0.5,1.6,2.9l3.2,17.4h0.9
	v-0.1c0,0,3.8-14.4,4-15.4c0.2,1,3,15.7,3,15.7h0.9v-0.1l4.1-15.7C49.7,20.5,51,20.3,51.5,20.3z"/>
<path class="st1" d="M42.8,43.6c-0.6,0-1,0.1-1.4,0.5c-0.3,0.3-0.5,0.7-0.5,1.2c0,0.6,0.1,1.1,0.5,1.5c0.3,0.3,0.7,0.5,1.1,0.5
	c0.5,0,0.9-0.1,1.2-0.4c0.4-0.3,0.6-0.8,0.6-1.5v-0.1c0-0.4-0.1-0.8-0.3-1.1C43.7,43.8,43.3,43.6,42.8,43.6z M43.7,45.6
	c0,0.4-0.1,0.8-0.3,1.1s-0.4,0.4-0.7,0.4s-0.6-0.2-0.8-0.6c-0.2-0.4-0.3-0.8-0.3-1.2s0.1-0.7,0.3-1s0.5-0.5,0.8-0.5s0.6,0.2,0.8,0.6
	C43.6,44.7,43.7,45.1,43.7,45.6z"/>
<path class="st1" d="M51.3,47.8c-0.1,0-0.2-0.1-0.2-0.2c0-0.1-0.1-0.2-0.1-0.3l0,0L50.3,44h-0.1l0,0c0,0.1-0.2,0.2-0.3,0.2l0,0v0.2
	l-1.2,2.5c0,0-0.1,0.2-0.2,0.3c-0.1,0.1-0.2,0.1-0.3,0.1l0,0c-0.5-0.2-0.9-0.8-0.9-0.8s-0.7-1.1-0.8-1.2l0.8-0.8
	c0.1-0.1,0.3-0.3,0.4-0.3c0.1,0,0.3-0.1,0.4-0.1l0,0l0,0v-0.2l-1.3-0.1l0,0V44h0.1c0.1,0,0.1,0,0.1,0.1v0.1c0,0.1-0.1,0.2-0.2,0.3
	c0,0-0.7,0.7-0.9,1l0.1-1c0-0.2,0.1-0.4,0.5-0.4l0,0l0,0v-0.2L45,43.8l0,0V44l0,0c0.3,0.1,0.5,0.1,0.4,0.6l-0.2,2
	c-0.1,0.5-0.2,0.5-0.5,0.6h-0.1l0,0v0.2l1.7,0.1v-0.2h-0.1c-0.1,0-0.1,0-0.3-0.1c-0.1-0.1-0.2-0.2-0.2-0.5l0,0l0.1-0.9l0.8,1.3
	c0,0,0.4,0.5,1.3,0.6l0,0l0,0l1.3,0.1v-0.2h-0.1c-0.2,0-0.3-0.1-0.3-0.1v-0.1c0-0.1,0-0.2,0.1-0.2c0,0,0.3-0.6,0.3-0.7
	c0.1,0,0.8,0.1,0.9,0.1c0,0.1,0.2,0.8,0.2,0.8s0,0.1,0,0.2c0,0.1,0,0.2-0.1,0.2c0,0-0.1,0.1-0.3,0.1l0,0v0.2l1.4,0.2v-0.2L51.3,47.8
	z M50.2,46c-0.1,0-0.6-0.1-0.7-0.1c0-0.1,0.4-0.8,0.4-1C50,45.1,50.2,45.9,50.2,46z"/>
<path class="st1" d="M40.4,43.6L40.4,43.6H39v0.2l0,0c0.2,0,0.4,0,0.5,0.2c0.1,0.1,0.1,0.3,0.1,0.5V46c0,0.8-0.6,0.9-0.8,0.9
	c-0.4,0-1-0.2-1-0.9v-1.6c0-0.2,0-0.3,0.1-0.4c0.1-0.1,0.3-0.1,0.4-0.1h0.1v-0.2h-1.7v0.2h0.1c0.1,0,0.3,0,0.4,0.2
	c0.1,0.1,0.1,0.2,0.1,0.5v1.5c0,0.4,0,1.3,1.4,1.3c0.4,0,0.7-0.1,1-0.3c0.2-0.2,0.3-0.6,0.3-0.9v-1.5c0-0.2,0-0.4,0.1-0.5
	s0.2-0.2,0.3-0.2h0.1l0,0L40.4,43.6L40.4,43.6z"/>
<path class="st1" d="M27.4,45.2L27.4,45.2C27.4,45.3,27.4,45.3,27.4,45.2c0,0.1,0,0.3-0.1,0.4c-0.1,0.1-0.2,0.2-0.3,0.2
	c0,0-0.4,0-0.5,0.1c0-0.1-0.1-1.3-0.2-1.4c0.1,0,0.5-0.1,0.5-0.1c0.3,0,0.4,0,0.5,0.1s0.1,0.2,0.1,0.3v0.1l0,0l0,0l0,0h0.1V44l0,0
	l0,0l0,0l-0.7,0.1l-1.1,0.1l-0.6,0.1v0.2h0.1c0.1,0,0.2,0,0.3,0.1c0.1,0.1,0.1,0.1,0.1,0.3l0.2,2.1c0,0.2,0,0.3-0.1,0.4
	c-0.1,0.1-0.3,0.2-0.4,0.2l0,0v0.2l1.7-0.2v-0.2l0,0c0,0-0.4,0-0.5-0.1s-0.1-0.2-0.2-0.3c0,0-0.1-0.7-0.1-0.9c0.1,0,0.4,0,0.4,0
	c0.2,0,0.4,0,0.5,0c0.1,0.1,0.2,0.3,0.2,0.4l0,0h0.2l-0.2-1.4L27.4,45.2z"/>
<path class="st1" d="M32.1,43.7L32.1,43.7l-1.4,0.1V44l0,0c0.2,0,0.4,0,0.5,0.1s0.2,0.3,0.2,0.5l0.1,1.5c0,0.3,0,0.5-0.2,0.7
	s-0.4,0.2-0.6,0.3c-0.2,0-0.6,0-0.8-0.2c-0.2-0.1-0.3-0.3-0.3-0.6l-0.1-1.6c0-0.2,0-0.3,0.1-0.4c0.1-0.1,0.2-0.2,0.4-0.2h0.1l0,0
	v-0.2L28.5,44v0.2h0.1c0.1,0,0.3,0,0.4,0.1s0.1,0.2,0.1,0.5l0.1,1.5c0,0.4,0.1,1.3,1.5,1.2c1.2-0.1,1.2-1.1,1.2-1.4l-0.1-1.5
	c0-0.2,0-0.4,0.1-0.5c0-0.1,0.2-0.2,0.3-0.2h0.1l0,0L32.1,43.7z"/>
<path class="st1" d="M36.4,47c-0.5-0.2-1-0.7-1-0.7s-0.9-1-0.9-1.1s0.7-0.9,0.7-0.9c0.1-0.1,0.3-0.3,0.3-0.3
	c0.1-0.1,0.3-0.2,0.4-0.2l0,0l0,0v-0.2l0,0h-1.2v0.2h0.1c0.1,0,0.1,0,0.1,0.1V44c0,0.1-0.1,0.2-0.2,0.3l-0.8,1.1v-1
	c0-0.2,0-0.4,0.4-0.5l0,0v-0.2l0,0l-1.5,0.1V44l0,0c0.3,0,0.5,0.1,0.5,0.6l0.1,2c0,0.5-0.1,0.6-0.4,0.6h-0.1l0,0v0.2l1.7-0.1v-0.2
	h-0.1c-0.1,0-0.1,0-0.3-0.1c-0.1-0.1-0.2-0.2-0.2-0.5v-0.9l1,1.2c0,0,0.4,0.5,1.3,0.4l0,0L36.4,47L36.4,47z"/>
</svg>
